<svg width="24" height="24" viewBox="0 0 24 24" fill="none" xmlns="http://www.w3.org/2000/svg">
<path d="M12.6826 22.0001V14.2551H10.0762V11.2367H12.6826V9.01071C12.4823 7.0121 13.9402 5.22958 15.9388 5.02935C16.1468 5.00851 16.3562 5.00564 16.5648 5.02078C17.3427 5.01804 18.1202 5.05777 18.8938 5.13978V7.83943L17.2955 7.8402C16.0422 7.8402 15.7996 8.43572 15.7996 9.30962V11.2367H18.7886L18.3993 14.2552H15.7997V22.0002L12.6826 22.0001Z" fill="black"/>
<path d="M20.999 2H2.99799C2.44574 2 1.99799 2.44769 1.99799 3V21.001C1.99799 21.5533 2.44574 22.001 2.99799 22.001H20.999C21.5513 22.001 21.999 21.5533 21.999 21.001V3C21.999 2.44769 21.5513 2 20.999 2ZM18.8937 7.83923L17.2955 7.84002C16.0422 7.84002 15.7996 8.43554 15.7996 9.30944V11.2365H18.7886L18.3993 14.2549H15.7997V21.9999H12.6826V14.2549H10.0762V11.2365H12.6826V9.0105C12.4823 7.0119 13.9402 5.22937 15.9388 5.02918C16.1468 5.00831 16.3563 5.00544 16.5648 5.02057C17.3427 5.01782 18.1202 5.05756 18.8937 5.13959V7.83923Z" fill="white"/>
</svg>
