<svg width="24" height="24" viewBox="0 0 24 24" fill="none" xmlns="http://www.w3.org/2000/svg">
<path d="M12.0004 6.86523C10.9848 6.86523 9.99204 7.16639 9.14761 7.73062C8.30318 8.29485 7.64503 9.09681 7.25638 10.0351C6.86773 10.9734 6.76605 12.0058 6.96418 13.0019C7.16231 13.998 7.65136 14.9129 8.36949 15.631C9.08761 16.3492 10.0026 16.8382 10.9986 17.0363C11.9947 17.2345 13.0272 17.1328 13.9654 16.7441C14.9037 16.3555 15.7057 15.6973 16.2699 14.8529C16.8341 14.0085 17.1353 13.0157 17.1353 12.0001C17.1353 11.3258 17.0025 10.6581 16.7444 10.0351C16.4864 9.41207 16.1082 8.846 15.6313 8.36918C15.1545 7.89236 14.5885 7.51413 13.9655 7.25608C13.3425 6.99803 12.6747 6.86522 12.0004 6.86523ZM12.0004 15.3337C11.3411 15.3337 10.6966 15.1382 10.1484 14.7719C9.60014 14.4056 9.17287 13.8849 8.92056 13.2758C8.66825 12.6667 8.60224 11.9964 8.73087 11.3497C8.8595 10.7031 9.177 10.1091 9.64321 9.64287C10.1094 9.17666 10.7034 8.85917 11.3501 8.73054C11.9967 8.60192 12.667 8.66794 13.2761 8.92026C13.8853 9.17258 14.4059 9.59986 14.7722 10.1481C15.1385 10.6963 15.334 11.3408 15.334 12.0001C15.3341 12.4379 15.2479 12.8714 15.0804 13.2759C14.9128 13.6804 14.6673 14.0479 14.3577 14.3574C14.0482 14.667 13.6807 14.9126 13.2762 15.0801C12.8717 15.2476 12.4382 15.3338 12.0004 15.3337Z" fill="white"/>
<path d="M21.9399 7.87719C21.9235 7.04765 21.7664 6.22691 21.4754 5.44993C21.2239 4.78282 20.8303 4.17837 20.3219 3.67847C19.8228 3.16961 19.2185 2.77594 18.5513 2.525C17.7744 2.23378 16.9536 2.07673 16.124 2.06054C15.0578 2.012 14.7169 2 12.0012 2C9.28555 2 8.94442 2.01126 7.87758 2.06054C7.04804 2.07693 6.22731 2.23398 5.45033 2.525C4.78303 2.77617 4.1785 3.1698 3.67887 3.67847C3.16973 4.17771 2.77605 4.78235 2.52547 5.44993C2.23445 6.22692 2.0774 7.04765 2.06101 7.87719C2.01172 8.94341 2.0004 9.28432 2.0004 12C2.0004 14.7157 2.01172 15.0565 2.06099 16.1228C2.07739 16.9523 2.23444 17.7731 2.52547 18.5501C2.77612 19.2176 3.16979 19.8222 3.67887 20.3215C4.17875 20.8299 4.7832 21.2234 5.45033 21.4749C6.22734 21.7659 7.04805 21.9229 7.87758 21.9394C8.94442 21.9879 9.28472 22 12.0004 22C14.7161 22 15.057 21.9887 16.1232 21.9394C16.9527 21.923 17.7735 21.766 18.5505 21.4749C19.2149 21.2181 19.8182 20.8252 20.3219 20.3215C20.8256 19.8178 21.2185 19.2145 21.4754 18.5501C21.7667 17.7732 21.9238 16.9523 21.9399 16.1228C21.9884 15.0558 21.9996 14.7157 21.9996 12C21.9996 9.28432 21.9884 8.94341 21.9399 7.87719ZM20.1409 16.0413C20.1332 16.6754 20.0168 17.3035 19.7969 17.8983C19.6304 18.3296 19.3755 18.7212 19.0486 19.048C18.7217 19.3748 18.3299 19.6295 17.8986 19.7957C17.3039 20.0162 16.6757 20.1326 16.0415 20.1397C14.9874 20.1882 14.6708 20.1979 12.0003 20.1979C9.32983 20.1979 9.01411 20.1882 7.96034 20.1397C7.32616 20.1325 6.69796 20.0161 6.10326 19.7957C5.6689 19.6352 5.27591 19.3797 4.95302 19.0477C4.62061 18.7256 4.36496 18.3327 4.20502 17.8983C3.98454 17.3037 3.86817 16.6754 3.86102 16.0413C3.81252 14.9872 3.80287 14.6706 3.80287 12.0001C3.80287 9.32956 3.81336 9.01384 3.86102 7.95887C3.86901 7.32479 3.98535 6.69674 4.20502 6.10187C4.36553 5.66751 4.62109 5.27452 4.95302 4.95163C5.27535 4.61903 5.66851 4.36336 6.10326 4.20363C6.69794 3.98318 7.32615 3.86681 7.96034 3.85963C9.01441 3.81114 9.33102 3.80148 12.0003 3.80148C14.6697 3.80148 14.9866 3.81197 16.0415 3.85963C16.6756 3.86762 17.3037 3.98396 17.8986 4.20363C18.3301 4.36988 18.7219 4.6247 19.0488 4.95164C19.3758 5.27859 19.6306 5.67043 19.7969 6.10188C20.0173 6.69654 20.1337 7.32472 20.1409 7.95888C20.1893 9.01388 20.199 9.32962 20.199 12.0001C20.199 14.6705 20.1894 14.9863 20.1409 16.0413H20.1409Z" fill="white"/>
<path d="M17.339 5.46191H17.3386C17.0204 5.46197 16.7153 5.58842 16.4903 5.81344C16.2653 6.03846 16.139 6.34363 16.139 6.66181C16.139 6.98 16.2654 7.28514 16.4904 7.51012C16.7154 7.7351 17.0206 7.86149 17.3388 7.86149C17.657 7.86149 17.9621 7.7351 18.1871 7.51012C18.4121 7.28514 18.5386 6.98 18.5386 6.66181C18.5386 6.34363 18.4122 6.03846 18.1873 5.81344C17.9623 5.58842 17.6572 5.46197 17.339 5.46191Z" fill="white"/>
</svg>
