<svg width="24" height="24" viewBox="0 0 24 24" fill="none" xmlns="http://www.w3.org/2000/svg">
<path d="M8.088 9.71094H5.086V18.7419H8.088V9.71094Z" fill="black"/>
<path d="M6.58716 8.47791H6.56744C5.70491 8.52993 4.96352 7.87288 4.9115 7.01034C4.85948 6.14781 5.51653 5.40642 6.37907 5.3544C6.45504 5.34982 6.53124 5.35079 6.60706 5.35729C7.46923 5.29485 8.21878 5.94314 8.28123 6.80531C8.34368 7.66748 7.69539 8.41703 6.83322 8.47948C6.75129 8.48541 6.66901 8.48489 6.58716 8.47791ZM18.9117 18.7418H15.9102V13.911C15.9102 12.6968 15.4755 11.8687 14.3896 11.8687C13.6958 11.8728 13.0794 12.3122 12.8493 12.9667C12.7724 13.2029 12.7389 13.451 12.7504 13.699V18.7418H9.7489C9.7489 18.7391 9.78827 10.5581 9.74921 9.71101H12.7507V10.991C13.3039 10.0283 14.3467 9.45321 15.4561 9.49913C17.431 9.49913 18.9117 10.7899 18.9117 13.5638V18.7418Z" fill="black"/>
<path d="M20.4681 2.00011H3.53186C2.73077 1.99047 2.0733 2.6317 2.06293 3.43279V20.5679C2.07336 21.3689 2.73083 22.01 3.53186 22.0001H20.4681C21.2693 22.0101 21.9269 21.3688 21.9371 20.5677V3.43279C21.9268 2.63164 21.2693 1.99034 20.4681 2.00011ZM8.08801 18.7421H5.086V9.71111H8.08801V18.7421ZM6.83325 8.47966C6.75128 8.48558 6.66901 8.4851 6.58716 8.47814H6.56744C5.7049 8.53014 4.9635 7.8731 4.9115 7.01055C4.8595 6.148 5.51654 5.40661 6.37909 5.35461C6.45502 5.35003 6.53125 5.35101 6.60706 5.35748C7.46924 5.29504 8.21875 5.94336 8.28125 6.80554C8.34369 7.66765 7.69537 8.41722 6.83325 8.47966ZM18.9117 18.7421H15.9101V13.9112C15.9101 12.697 15.4755 11.8689 14.3896 11.8689C13.6958 11.873 13.0793 12.3124 12.8493 12.967C12.7725 13.2031 12.7389 13.4512 12.7504 13.6993V18.7421H9.7489C9.7489 18.7394 9.78827 10.5583 9.74921 9.71123H12.7507V10.9912C13.3039 10.0285 14.3467 9.45342 15.4561 9.49932C17.431 9.49932 18.9117 10.7901 18.9117 13.564V18.7421H18.9117Z" fill="white"/>
</svg>
